HIERARCHY
ROOT Hips
{
	OFFSET 0.000000 0.000000 0.000000
	CHANNELS 6 Xposition Yposition Zposition Zrotation Yrotation Xrotation 
	JOINT LowerBack
	{
		OFFSET 0.000000 0.000000 0.000000
		CHANNELS 3 Zrotation Yrotation Xrotation
		JOINT Spine
		{
			OFFSET 0.028270 2.035590 -0.193380
			CHANNELS 3 Zrotation Yrotation Xrotation
			JOINT Spine1
			{
				OFFSET 0.056720 2.048850 -0.042750
				CHANNELS 3 Zrotation Yrotation Xrotation
				JOINT Neck
				{
					OFFSET 0.000000 0.000000 0.000000
					CHANNELS 3 Zrotation Yrotation Xrotation
					JOINT Neck1
					{
						OFFSET -0.054170 1.746240 0.172020
						CHANNELS 3 Zrotation Yrotation Xrotation
						JOINT Head
						{
							OFFSET 0.104070 1.761360 -0.123970
							CHANNELS 3 Zrotation Yrotation Xrotation
							End Site
							{
								OFFSET 0.000000 0.000000 0.000000
							}
						}
					}
				}
				JOINT LeftShoulder
				{
					OFFSET 0.000000 0.000000 0.000000
					CHANNELS 3 Zrotation Yrotation Xrotation
					JOINT LeftArm
					{
						OFFSET 3.362410 1.200890 -0.311210
						CHANNELS 3 Zrotation Yrotation Xrotation
						JOINT LeftForeArm
						{
							OFFSET 4.983000 -0.000000 -0.000000
							CHANNELS 3 Zrotation Yrotation Xrotation
							JOINT LeftHand
							{
								OFFSET 3.483560 -0.000000 -0.000000
								CHANNELS 3 Zrotation Yrotation Xrotation
								JOINT LeftFingerBase
								{
									OFFSET 0.000000 0.000000 0.000000
									CHANNELS 3 Zrotation Yrotation Xrotation
									JOINT LeftHandIndex1
									{
										OFFSET 0.715260 -0.000000 -0.000000
										CHANNELS 3 Zrotation Yrotation Xrotation
										End Site
										{
											OFFSET 0.000000 0.000000 0.000000
										}
									}
								}
								JOINT LThumb
								{
									OFFSET 0.000000 0.000000 0.000000
									CHANNELS 3 Zrotation Yrotation Xrotation
									End Site
									{
										OFFSET 0.000000 0.000000 0.000000
									}
								}
							}
						}
					}
				}
				JOINT RightShoulder
				{
					OFFSET 0.000000 0.000000 0.000000
					CHANNELS 3 Zrotation Yrotation Xrotation
					JOINT RightArm
					{
						OFFSET -3.136600 1.374050 -0.404650
						CHANNELS 3 Zrotation Yrotation Xrotation
						JOINT RightForeArm
						{
							OFFSET -5.241900 -0.000000 -0.000000
							CHANNELS 3 Zrotation Yrotation Xrotation
							JOINT RightHand
							{
								OFFSET -3.444170 -0.000000 -0.000000
								CHANNELS 3 Zrotation Yrotation Xrotation
								JOINT RightFingerBase
								{
									OFFSET 0.000000 0.000000 0.000000
									CHANNELS 3 Zrotation Yrotation Xrotation
									JOINT RightHandIndex1
									{
										OFFSET -0.622530 -0.000000 -0.000000
										CHANNELS 3 Zrotation Yrotation Xrotation
										End Site
										{
											OFFSET 0.000000 0.000000 0.000000
										}
									}
								}
								JOINT RThumb
								{
									OFFSET 0.000000 0.000000 0.000000
									CHANNELS 3 Zrotation Yrotation Xrotation
									End Site
									{
										OFFSET 0.000000 0.000000 0.000000
									}
								}
							}
						}
					}
				}
			}
		}
	}
}
}
MOTION
Frames: 17
Frame Time: 0.008333
-1.092267 16.379705 1.723295 -155.393838 79.357433 -128.131354 8.982571 -2.192770 2.688610 1.086478 -2.596199 -2.350629 -6.458200 -2.654233 0.353328 9.985312 -0.488807 1.965072 -3.811057 -0.347991 2.330227 0.000000 0.000000 0.000000 -4.924670 -3.838558 -0.460837 -71.136346 -20.157679 22.970755 -1.064287 -72.448667 -0.035553 7.040590 -2.783788 -0.198907 -0.185841 0.398170 -0.000000 0.000000 0.000000 0.000000 0.000000 0.000000 0.000000 15.053727 -3.387626 1.634030 53.934322 -5.843006 -19.801667 3.801815 5.189695 0.009921 -4.532213 5.477761 -0.225828 0.144364 -0.050909 -0.000000 0.000000 0.000000 0.000000 0.000000 0.000000 0.000000 
-0.958870 16.345983 1.735216 -154.120208 78.841439 -126.880801 9.391293 -2.189430 2.914074 1.146689 -2.595504 -2.325991 -6.513580 -2.658937 0.303926 10.480653 -0.116673 2.119328 -3.829980 -0.348926 2.365476 0.000000 0.000000 0.000000 -5.207659 -3.971442 -0.450543 -71.511842 -19.633601 21.491974 -1.140135 -70.740514 -0.038653 7.745471 -2.912089 -0.226885 -0.187932 0.387869 0.000000 0.000000 0.000000 0.000000 0.000000 0.000000 0.000000 15.598218 -3.202788 1.578128 53.574179 -5.238992 -19.949667 3.795715 4.761004 0.009432 -4.724396 5.349303 -0.229538 0.142947 -0.048970 -0.000000 0.000000 0.000000 0.000000 0.000000 0.000000 0.000000 
-0.830255 16.321397 1.747774 -153.191356 78.352649 -126.002852 9.700090 -2.197453 3.177357 1.185752 -2.597673 -2.287927 -6.577763 -2.666057 0.271910 11.026723 0.270180 2.286907 -3.850952 -0.349949 2.402271 0.000000 0.000000 0.000000 -5.445377 -4.096043 -0.439002 -71.894466 -19.130780 19.936830 -1.211455 -68.867045 -0.042307 8.622250 -3.019472 -0.259770 -0.191310 0.375509 0.000000 0.000000 0.000000 0.000000 0.000000 0.000000 0.000000 16.203175 -3.023347 1.512277 53.267916 -4.462818 -20.241100 3.771634 4.301827 0.008826 -5.017445 5.223657 -0.237552 0.141160 -0.047329 -0.000000 0.000000 0.000000 0.000000 0.000000 0.000000 0.000000 
-0.706139 16.306487 1.761324 -152.636656 77.893359 -125.525055 9.904266 -2.217207 3.471250 1.203265 -2.603644 -2.236875 -6.648840 -2.676434 0.260951 11.609403 0.657777 2.461215 -3.873279 -0.350997 2.438963 0.000000 0.000000 0.000000 -5.642373 -4.207723 -0.422803 -72.261563 -18.662650 18.339123 -1.275902 -66.837716 -0.046361 9.673150 -3.093934 -0.296464 -0.195761 0.360992 0.000000 0.000000 0.000000 0.000000 0.000000 0.000000 0.000000 16.851755 -2.858507 1.437211 53.036110 -3.519021 -20.677085 3.727804 3.834567 0.008125 -5.426868 5.116114 -0.251063 0.138997 -0.046096 -0.000000 0.000000 0.000000 0.000000 0.000000 0.000000 0.000000 
-0.586000 16.301430 1.775913 -152.492003 77.464897 -125.478637 10.002462 -2.248341 3.785376 1.199681 -2.614195 -2.174229 -6.723509 -2.690765 0.273524 12.209408 1.031642 2.636332 -3.896176 -0.352016 2.474189 0.000000 0.000000 0.000000 -5.804969 -4.304570 -0.399052 -72.593897 -18.236938 16.737270 -1.331756 -64.663445 -0.050560 10.887120 -3.122790 -0.334867 -0.200853 0.344298 0.000000 0.000000 0.000000 0.000000 0.000000 0.000000 0.000000 17.521637 -2.717361 1.353581 52.898500 -2.420620 -21.243862 3.663670 3.387783 0.007365 -5.959269 5.046097 -0.271174 0.136457 -0.045350 -0.000000 0.000000 0.000000 0.000000 0.000000 0.000000 0.000000 
-0.469214 16.305987 1.791188 -152.781052 77.066478 -125.881587 9.999711 -2.289395 4.107773 1.176742 -2.629568 -2.102206 -6.797507 -2.709216 0.310760 12.803709 1.384375 2.807823 -3.918496 -0.352943 2.507106 0.000000 0.000000 0.000000 -5.942781 -4.378426 -0.364665 -72.878704 -17.865216 15.181709 -1.378939 -62.349565 -0.054581 12.238716 -3.093830 -0.371178 -0.206053 0.325520 0.000000 0.000000 0.000000 0.000000 0.000000 0.000000 0.000000 18.185488 -2.599731 1.261457 52.875164 -1.200439 -21.903338 3.580621 3.009590 0.006574 -6.607931 5.027928 -0.298883 0.133558 -0.045069 -0.000000 0.000000 0.000000 0.000000 0.000000 0.000000 0.000000 
-0.355149 16.319595 1.806413 -153.504729 76.690783 -126.726668 9.907155 -2.337776 4.424814 1.137465 -2.649285 -2.024000 -6.866203 -2.731297 0.371562 13.367062 1.705948 2.972910 -3.939297 -0.353750 2.537431 0.000000 0.000000 0.000000 -6.063867 -4.431997 -0.318505 -73.109662 -17.543220 13.713947 -1.417455 -59.908792 -0.058071 13.684846 -2.994523 -0.400498 -0.210572 0.304862 0.000000 0.000000 0.000000 0.000000 0.000000 0.000000 0.000000 18.814101 -2.509458 1.161121 52.981706 0.113425 -22.615433 3.481692 2.734536 0.005806 -7.350216 5.082617 -0.335388 0.130343 -0.045247 -0.000000 0.000000 0.000000 0.000000 0.000000 0.000000 0.000000 
-0.243169 16.341449 1.820773 -154.634897 76.325569 -127.975859 9.744678 -2.389759 4.722113 1.086628 -2.672074 -1.943374 -6.925048 -2.755766 0.453653 13.874570 1.990724 3.130176 -3.957585 -0.354413 2.565313 0.000000 0.000000 0.000000 -6.177334 -4.465825 -0.260118 -73.286106 -17.267433 12.377649 -1.448548 -57.351583 -0.060685 15.167623 -2.815186 -0.416925 -0.213619 0.282682 0.000000 0.000000 0.000000 0.000000 0.000000 0.000000 0.000000 19.378513 -2.445544 1.052478 53.228683 1.487269 -23.332004 3.371726 2.595442 0.005114 -8.148626 5.227412 -0.381690 0.126907 -0.045834 -0.000000 0.000000 0.000000 0.000000 0.000000 0.000000 0.000000 
-0.132723 16.370584 1.833272 -156.110644 75.954928 -129.557729 9.537574 -2.440494 4.985811 1.029950 -2.695526 -1.864394 -6.970301 -2.780318 0.553469 14.304185 2.235672 3.279657 -3.972626 -0.354931 2.591313 0.000000 0.000000 0.000000 -6.291665 -4.481976 -0.190156 -73.412180 -17.030871 11.211307 -1.474157 -54.689665 -0.062161 16.615894 -2.549984 -0.414259 -0.214460 0.259480 0.000000 0.000000 0.000000 0.000000 0.000000 0.000000 0.000000 19.853892 -2.404802 0.935356 53.620446 2.888040 -24.002032 3.256986 2.615941 0.004555 -8.952623 5.475872 -0.438587 0.123394 -0.046774 -0.000000 0.000000 0.000000 0.000000 0.000000 0.000000 0.000000 
-0.023478 16.405934 1.842857 -157.839664 75.560892 -131.371483 9.313452 -2.484968 5.204842 0.973472 -2.716708 -1.791000 -6.999086 -2.802224 0.665848 14.638086 2.443343 3.423565 -3.983593 -0.355314 2.616564 0.000000 0.000000 0.000000 -6.413768 -4.486076 -0.110147 -73.494853 -16.821130 10.244317 -1.496329 -51.940006 -0.062350 17.950729 -2.198452 -0.387895 -0.212522 0.235897 0.000000 0.000000 0.000000 0.000000 0.000000 0.000000 0.000000 20.219320 -2.379412 0.810232 54.153240 4.290545 -24.612655 3.144062 2.789775 0.004200 -9.699346 5.849638 -0.506981 0.119968 -0.048126 -0.000000 0.000000 0.000000 0.000000 0.000000 0.000000 0.000000 
0.084881 16.446483 1.848620 -159.711123 75.128872 -133.298806 9.098838 -2.517602 5.371295 0.922498 -2.731642 -1.726278 -7.010758 -2.817688 0.786398 14.866452 2.610200 3.561852 -3.990925 -0.355619 2.641458 0.000000 0.000000 0.000000 -6.547281 -4.481336 -0.022831 -73.544713 -16.630151 9.500747 -1.517706 -49.119542 -0.061243 19.090761 -1.767666 -0.335532 -0.207558 0.212657 0.000000 0.000000 0.000000 0.000000 0.000000 0.000000 0.000000 20.467896 -2.368274 0.677704 54.813924 5.669825 -25.068440 3.040441 3.136508 0.004069 -10.337762 6.328639 -0.583971 0.116864 -0.049754 -0.000000 0.000000 0.000000 0.000000 0.000000 0.000000 0.000000 
0.192302 16.491287 1.849920 -161.610066 74.650453 -135.223084 8.914964 -2.534042 5.483351 0.881333 -2.736696 -1.672166 -7.004562 -2.823321 0.909853 14.983415 2.741726 3.697083 -3.994079 -0.355855 2.666971 0.000000 0.000000 0.000000 -6.694866 -4.474951 0.068771 -73.568934 -16.443095 8.990674 -1.540123 -46.255089 -0.058971 19.960124 -1.270720 -0.258765 -0.199606 0.190487 0.000000 0.000000 0.000000 0.000000 0.000000 0.000000 0.000000 20.592648 -2.363139 0.539938 55.582375 7.029827 -25.426159 2.951676 3.589280 0.004246 -10.800185 6.950684 -0.669654 0.114174 -0.051954 -0.000000 0.000000 0.000000 0.000000 0.000000 0.000000 0.000000 
0.298765 16.539559 1.846395 -163.436495 74.121440 -137.044453 8.771517 -2.527973 5.544559 0.850131 -2.725487 -1.630628 -6.986568 -2.812977 1.027164 15.006600 2.845294 3.831427 -3.996256 -0.356244 2.693798 0.000000 0.000000 0.000000 -6.844853 -4.476971 0.163734 -73.580661 -16.247989 8.714208 -1.566476 -43.370904 -0.055755 20.494162 -0.731868 -0.163788 -0.189088 0.170076 0.000000 0.000000 0.000000 0.000000 0.000000 0.000000 0.000000 20.625230 -2.350191 0.399086 56.436634 8.278887 -25.322684 2.883618 4.325237 0.004551 -11.098991 7.536570 -0.745834 0.112111 -0.053894 -0.000000 0.000000 0.000000 0.000000 0.000000 0.000000 0.000000 
0.403945 16.590681 1.838188 -165.119680 73.548876 -138.698837 8.673531 -2.498007 5.563144 0.829755 -2.695856 -1.600757 -6.957014 -2.784594 1.134817 14.941174 2.927084 3.965988 -3.996720 -0.356747 2.722204 0.000000 0.000000 0.000000 -6.994854 -4.494127 0.258954 -73.581490 -16.028735 8.659827 -1.597892 -40.506725 -0.051860 20.645868 -0.173810 -0.059199 -0.176582 0.151874 0.000000 0.000000 0.000000 0.000000 0.000000 0.000000 0.000000 20.569011 -2.323676 0.258988 57.344945 9.456682 -24.921712 2.836734 5.214910 0.005071 -11.187043 8.154030 -0.813210 0.110523 -0.056145 -0.000000 0.000000 0.000000 0.000000 0.000000 0.000000 0.000000 
0.507601 16.644127 1.825713 -166.617212 72.940845 -140.152441 8.614385 -2.442151 5.551485 0.817416 -2.644443 -1.581481 -6.921112 -2.734835 1.226979 14.810165 2.996603 4.101422 -3.997426 -0.357475 2.752202 0.000000 0.000000 0.000000 -7.131390 -4.532098 0.353808 -73.576317 -15.774494 8.807782 -1.636527 -37.697341 -0.047527 20.390074 0.374864 0.043805 -0.162829 0.136142 0.000000 0.000000 0.000000 0.000000 0.000000 0.000000 0.000000 20.455806 -2.271726 0.122970 58.274976 10.526426 -24.078337 2.809772 6.322752 0.005682 -11.089822 8.709465 -0.860983 0.109318 -0.058384 -0.000000 0.000000 0.000000 0.000000 0.000000 0.000000 0.000000 
0.609348 16.699417 1.809641 -167.914616 72.309530 -141.402315 8.584484 -2.362743 5.524361 0.811051 -2.571918 -1.569375 -6.879541 -2.664228 1.303587 14.624201 3.054821 4.235296 -3.997504 -0.358337 2.782872 0.000000 0.000000 0.000000 -7.248917 -4.592535 0.446006 -73.561003 -15.473002 9.132044 -1.683483 -34.988770 -0.042950 19.724459 0.893393 0.135326 -0.148537 0.122843 0.000000 0.000000 0.000000 0.000000 0.000000 0.000000 0.000000 20.293288 -2.196467 -0.004777 59.197677 11.550932 -23.004050 2.800632 7.506015 0.006443 -10.781079 9.285309 -0.892454 0.108155 -0.061183 -0.000000 0.000000 0.000000 0.000000 0.000000 0.000000 0.000000 
0.709059 16.756248 1.790832 -169.023833 71.664183 -142.469882 8.563871 -2.259525 5.497125 0.804457 -2.476160 -1.562519 -6.840827 -2.570475 1.360226 14.422623 3.120295 4.365956 -4.000824 -0.359513 2.813433 0.000000 0.000000 0.000000 -7.328063 -4.655989 0.538601 -73.541242 -15.145392 9.617220 -1.743205 -32.389105 -0.038266 18.671987 1.354612 0.206065 -0.134439 0.111830 0.000000 0.000000 0.000000 0.000000 0.000000 0.000000 0.000000 20.137653 -2.074540 -0.124070 60.072398 12.422123 -21.336526 2.800082 9.000221 0.007037 -10.380188 9.663414 -0.894424 0.107021 -0.063465 -0.000000 0.000000 0.000000 0.000000 0.000000 0.000000 0.000000 
